name ./resultDataOpenSim/trcMotMarkerGrf/sub10/grf-12-02.mot
datacolumns 19
datarows 10
range 1.38000000 1.41600000
endheader

                time	     ground_force_vx	     ground_force_vy	     ground_force_vz	     ground_force_px	     ground_force_py	     ground_force_pz	   l_ground_force_vx	   l_ground_force_vy	   l_ground_force_vz	   l_ground_force_px	   l_ground_force_py	   l_ground_force_pz	     ground_torque_x	     ground_torque_y	     ground_torque_z	   l_ground_torque_x	   l_ground_torque_y	   l_ground_torque_z	
          1.38000000	        -15.44668087	        406.49489565	        -31.56939254	          0.85237252	          0.00000000	          0.06843235	          0.00000000	          0.00000000	          0.00000000	          0.00000000	          0.00000000	          0.00000000	          0.00000000	          3.03523185	          0.00000000	          0.00000000	          0.00000000	          0.00000000	
          1.38400000	        -12.46595414	        405.60773956	        -31.79959745	          0.85225672	          0.00000000	          0.06844619	          0.00000000	          0.00000000	          0.00000000	          0.00000000	          0.00000000	          0.00000000	          0.00000000	          3.04372578	          0.00000000	          0.00000000	          0.00000000	          0.00000000	
          1.38800000	         -8.64180997	        404.82137553	        -32.04217924	          0.85191663	          0.00000000	          0.06849619	          0.00000000	          0.00000000	          0.00000000	          0.00000000	          0.00000000	          0.00000000	          0.00000000	          3.03813789	          0.00000000	          0.00000000	          0.00000000	          0.00000000	
          1.39200000	         -4.46963091	        404.21161261	        -32.44242964	          0.85146126	          0.00000000	          0.06856203	          0.00000000	          0.00000000	          0.00000000	          0.00000000	          0.00000000	          0.00000000	          0.00000000	          3.04014983	          0.00000000	          0.00000000	          0.00000000	          0.00000000	
          1.39600000	         -0.51218687	        403.94182810	        -33.12794595	          0.85102285	          0.00000000	          0.06861495	          0.00000000	          0.00000000	          0.00000000	          0.00000000	          0.00000000	          0.00000000	          0.00000000	          3.06957046	          0.00000000	          0.00000000	          0.00000000	          0.00000000	
          1.40000000	          2.75868898	        404.22923613	        -34.15507831	          0.85069370	          0.00000000	          0.06862757	          0.00000000	          0.00000000	          0.00000000	          0.00000000	          0.00000000	          0.00000000	          0.00000000	          3.14270708	          0.00000000	          0.00000000	          0.00000000	          0.00000000	
          1.40400000	          5.08276443	        405.28261852	        -35.48297561	          0.85054232	          0.00000000	          0.06858096	          0.00000000	          0.00000000	          0.00000000	          0.00000000	          0.00000000	          0.00000000	          0.00000000	          3.27000310	          0.00000000	          0.00000000	          0.00000000	          0.00000000	
          1.40800000	          6.46069610	        407.26092392	        -36.98020106	          0.85053180	          0.00000000	          0.06847767	          0.00000000	          0.00000000	          0.00000000	          0.00000000	          0.00000000	          0.00000000	          0.00000000	          3.45250660	          0.00000000	          0.00000000	          0.00000000	          0.00000000	
          1.41200000	          7.14138424	        410.26404985	        -38.45808390	          0.85060465	          0.00000000	          0.06831996	          0.00000000	          0.00000000	          0.00000000	          0.00000000	          0.00000000	          0.00000000	          0.00000000	          3.67929829	          0.00000000	          0.00000000	          0.00000000	          0.00000000	
          1.41600000	          7.56344548	        414.33205349	        -39.71764998	          0.85072024	          0.00000000	          0.06810331	          0.00000000	          0.00000000	          0.00000000	          0.00000000	          0.00000000	          0.00000000	          0.00000000	          3.92875976	          0.00000000	          0.00000000	          0.00000000	          0.00000000	
